<svg width="144" height="43" viewBox="0 0 144 43" fill="none" xmlns="http://www.w3.org/2000/svg">
<g clip-path="url(#clip0_7039_296348)">
<path fill-rule="evenodd" clip-rule="evenodd" d="M138.675 0.855469H5.32138C2.34141 0.855469 0 3.16697 0 6.10889V37.3142C0 40.151 2.44784 42.5676 5.32138 42.5676H138.675C141.655 42.5676 143.997 40.2561 143.997 37.3142V6.10889C144.103 3.16697 141.655 0.855469 138.675 0.855469Z" fill="#14171A"/>
<path fill-rule="evenodd" clip-rule="evenodd" d="M49.9664 11.5105C49.9664 12.3705 49.6473 13.123 49.2219 13.6605C48.5837 14.198 47.7328 14.5205 46.7756 14.5205C45.9248 14.5205 45.0739 14.198 44.4357 13.553C43.7976 12.908 43.4785 12.1555 43.4785 11.188C43.4785 10.2205 43.7976 9.46797 44.4357 8.82297C45.0739 8.17797 45.8184 7.85547 46.7756 7.85547C47.2011 7.85547 47.6265 7.96297 48.0519 8.17797C48.5837 8.28547 48.9028 8.50047 49.1155 8.82297L48.5837 9.36047C48.1583 8.93047 47.5201 8.60797 46.7756 8.60797C46.1375 8.60797 45.4993 8.93047 45.0739 9.36047C44.5421 9.79047 44.3294 10.4355 44.3294 11.188C44.3294 11.9405 44.5421 12.5855 45.0739 13.0155C45.6057 13.4455 46.1375 13.768 46.7756 13.768C47.5201 13.768 48.0519 13.553 48.5837 13.0155C48.9028 12.693 49.1155 12.263 49.1155 11.7255H46.7756V10.973H49.86C49.9664 11.188 49.9664 11.2955 49.9664 11.5105Z" fill="white" stroke="white" stroke-width="0.625"/>
<path fill-rule="evenodd" clip-rule="evenodd" d="M54.8222 8.82289H51.9505V10.8654H54.6094V11.6179H51.9505V13.6604H54.8222V14.4129H51.0996V7.96289L54.8222 7.96289V8.82289Z" fill="white" stroke="white" stroke-width="0.625"/>
<path fill-rule="evenodd" clip-rule="evenodd" d="M58.3445 14.4129H57.4936V8.82289H55.6855V7.96289L60.1526 7.96289V8.82289H58.3445V14.4129Z" fill="white" stroke="white" stroke-width="0.625"/>
<path fill-rule="evenodd" clip-rule="evenodd" d="M63.3066 14.4129V7.96289H64.1575V14.4129H63.3066Z" fill="white" stroke="white" stroke-width="0.625"/>
<path fill-rule="evenodd" clip-rule="evenodd" d="M67.7781 14.4129H66.9272V8.82289H65.1191V7.96289L69.5862 7.96289V8.82289H67.7781V14.4129Z" fill="white" stroke="white" stroke-width="0.625"/>
<path d="M77.846 13.553C77.2078 14.198 76.4633 14.5205 75.5061 14.5205C74.5489 14.5205 73.8044 14.198 73.1662 13.553C72.5281 12.908 72.209 12.1555 72.209 11.188C72.209 10.2205 72.5281 9.46797 73.1662 8.82297C73.8044 8.17797 74.5489 7.85547 75.5061 7.85547C76.4633 7.85547 77.2078 8.17797 77.846 8.82297C78.4841 9.46797 78.8032 10.2205 78.8032 11.188C78.8032 12.1555 78.4841 12.908 77.846 13.553ZM73.8044 13.0155C74.2298 13.4455 74.8679 13.768 75.5061 13.768C76.1443 13.768 76.7824 13.553 77.2078 13.0155C77.7396 12.5855 77.9523 11.9405 77.9523 11.188C77.9523 10.4355 77.7396 9.89797 77.3142 9.36047C76.8888 8.93047 76.2506 8.60797 75.6125 8.60797C74.8679 8.60797 74.2298 8.93047 73.8044 9.36047C73.2726 9.89797 73.0599 10.4355 73.0599 11.188C73.0599 11.9405 73.2726 12.5855 73.8044 13.0155Z" fill="white" stroke="white" stroke-width="0.625"/>
<path fill-rule="evenodd" clip-rule="evenodd" d="M79.9922 14.4129V7.96289H80.9494L84.0338 13.0154H84.1402L84.0338 11.7254V7.96289H84.8847V14.4129H84.0338L80.7367 9.14539V10.4354V14.4129H79.9922Z" fill="white" stroke="white" stroke-width="0.625"/>
<path d="M72.0117 23.7052C69.5654 23.7052 67.4383 25.6402 67.4383 28.2202C67.4383 30.8002 69.4591 32.7352 72.0117 32.7352C74.5643 32.7352 76.5851 30.8002 76.5851 28.2202C76.5851 25.6402 74.5643 23.7052 72.0117 23.7052ZM72.0117 31.0152C70.629 31.0152 69.4591 29.8327 69.4591 28.2202C69.4591 26.6077 70.629 25.4252 72.0117 25.4252C73.3943 25.4252 74.5643 26.5002 74.5643 28.2202C74.5643 29.8327 73.3943 31.0152 72.0117 31.0152ZM62.1204 23.7052C59.5678 23.7052 57.5469 25.6402 57.5469 28.2202C57.5469 30.8002 59.5678 32.7352 62.1204 32.7352C64.673 32.7352 66.6938 30.8002 66.6938 28.2202C66.6938 25.6402 64.5666 23.7052 62.1204 23.7052ZM62.1204 31.0152C60.7377 31.0152 59.5678 29.8327 59.5678 28.2202C59.5678 26.6077 60.7377 25.4252 62.1204 25.4252C63.503 25.4252 64.673 26.5002 64.673 28.2202C64.673 29.8327 63.503 31.0152 62.1204 31.0152ZM50.3146 25.1027V27.0377H54.888C54.7816 28.1127 54.3562 28.8652 53.8244 29.4027C53.1863 30.0477 52.1227 30.8002 50.3146 30.8002C47.4429 30.8002 45.3157 28.5427 45.3157 25.6402C45.3157 22.7377 47.5493 20.4802 50.3146 20.4802C51.8036 20.4802 52.9735 21.1252 53.8244 21.8777L55.2071 20.4802C54.0371 19.4052 52.5481 18.5452 50.4209 18.5452C46.4857 18.5452 43.2949 21.6627 43.2949 25.5327C43.2949 29.4027 46.592 32.5202 50.4209 32.5202C52.5481 32.5202 54.1435 31.8752 55.3134 30.5852C56.5897 29.2952 57.0152 27.5752 57.0152 26.0702C57.0152 25.6402 57.0152 25.2102 56.9088 24.8877H50.3146V25.1027ZM98.6013 26.6077C98.1758 25.6402 97.1123 23.7052 94.666 23.7052C92.3261 23.7052 90.4117 25.5327 90.4117 28.2202C90.4117 30.8002 92.3261 32.7352 94.8787 32.7352C97.0059 32.7352 98.1758 31.4452 98.7076 30.6927L97.1123 29.6177C96.5805 30.3702 95.9423 30.9077 94.8787 30.9077C93.9215 30.9077 93.177 30.4777 92.6452 29.5102L98.7076 27.0377L98.6013 26.6077ZM92.4325 28.1127C92.4325 26.3927 93.8151 25.4252 94.7724 25.4252C95.5169 25.4252 96.2614 25.8552 96.4741 26.3927L92.4325 28.1127ZM87.4336 32.5202H89.4544V19.1902H87.4336V32.5202ZM84.2429 24.7802C83.7111 24.2427 82.8602 23.8127 81.7966 23.8127C79.5631 23.8127 77.436 25.8552 77.436 28.3277C77.436 30.9077 79.5631 32.8427 81.7966 32.8427C82.8602 32.8427 83.7111 32.4127 84.1365 31.7677H84.2429V32.4127C84.2429 34.1327 83.2857 35.1002 81.7966 35.1002C80.6267 35.1002 79.7758 34.2402 79.5631 33.4877L77.8614 34.2402C78.3932 35.4227 79.6695 36.9277 81.903 36.9277C84.2429 36.9277 86.2637 35.5302 86.2637 32.1977V24.0277H84.3493V24.7802H84.2429ZM81.903 31.0152C80.5203 31.0152 79.3504 29.8327 79.3504 28.3277C79.3504 26.7152 80.5203 25.5327 81.903 25.5327C83.2857 25.5327 84.3493 26.7152 84.3493 28.3277C84.3493 29.8327 83.2857 31.0152 81.903 31.0152ZM107.961 19.1902H103.175V32.5202H105.195V27.4677H107.961C110.194 27.4677 112.321 25.8552 112.321 23.3827C112.321 20.8027 110.088 19.1902 107.961 19.1902ZM107.961 25.6402H105.089V21.1252H107.961C109.45 21.1252 110.301 22.3077 110.301 23.3827C110.301 24.3502 109.45 25.6402 107.961 25.6402ZM120.298 23.7052C118.809 23.7052 117.32 24.3502 116.789 25.7477L118.597 26.5002C119.022 25.7477 119.66 25.5327 120.405 25.5327C121.468 25.5327 122.532 26.1777 122.532 27.2527V27.3602C122.213 27.1452 121.362 26.8227 120.405 26.8227C118.49 26.8227 116.576 27.8977 116.576 29.8327C116.576 31.6602 118.171 32.7352 119.873 32.7352C121.256 32.7352 122 32.0902 122.426 31.4452H122.532V32.5202H124.446V27.3602C124.34 24.9952 122.532 23.7052 120.298 23.7052ZM120.086 31.0152C119.448 31.0152 118.49 30.6927 118.49 29.9402C118.49 28.8652 119.66 28.5427 120.617 28.5427C121.468 28.5427 121.894 28.7577 122.426 28.9727C122.213 30.1552 121.149 31.0152 120.086 31.0152ZM131.36 24.0277L129.126 29.8327H129.02L126.68 24.0277H124.553L128.063 32.0902L125.935 36.4977H128.063L133.487 23.9202H131.36V24.0277ZM113.385 32.5202H115.406V19.1902H113.385V32.5202Z" fill="white"/>
<path d="M25.6035 20.707L28.8848 17.4258L13.5176 8.56641L25.6035 20.707ZM10.4004 7.85547C9.68945 8.23828 9.19727 8.94922 9.19727 9.82422L9.19727 33.9414C9.19727 34.8164 9.68945 35.5273 10.4004 35.8555L24.4004 21.8555L10.4004 7.85547ZM33.6426 20.2148L30.416 18.3555L26.8066 21.8555L30.416 25.4102L33.6973 23.5508C34.6816 22.7852 34.6816 20.9805 33.6426 20.2148ZM13.5176 35.1445L28.8848 26.3398L25.6035 23.0586L13.5176 35.1445Z" fill="white"/>
</g>
<defs>
<clipPath id="clip0_7039_296348">
<rect width="144" height="42" fill="white" transform="translate(0 0.855469)"/>
</clipPath>
</defs>
</svg>
