<svg width="144" height="43" viewBox="0 0 144 43" fill="none" xmlns="http://www.w3.org/2000/svg">
<g clip-path="url(#clip0_7039_296347)">
<path fill-rule="evenodd" clip-rule="evenodd" d="M138.675 0.855469H5.32138C2.34141 0.855469 0 3.16697 0 6.10889V37.3142C0 40.151 2.44784 42.5676 5.32138 42.5676H138.675C141.655 42.5676 143.997 40.2561 143.997 37.3142V6.10889C144.103 3.16697 141.655 0.855469 138.675 0.855469Z" fill="#14171A"/>
<path fill-rule="evenodd" clip-rule="evenodd" d="M30.7577 21.9753C30.7577 19.8739 31.9284 17.9827 33.8441 16.8269C32.5669 15.2509 30.6512 14.3053 28.6291 14.2002C26.5006 13.9901 24.372 15.4611 23.3077 15.4611C22.137 15.4611 20.4342 14.2002 18.6249 14.3053C16.1771 14.4104 14.0485 15.6712 12.8778 17.6675C10.43 21.7652 12.2393 27.8591 14.5807 31.2213C15.7514 32.9024 17.1349 34.6886 18.9442 34.5835C20.7535 34.4784 21.392 33.5328 23.5206 33.5328C25.6492 33.5328 26.2877 34.5835 28.097 34.5835C30.0127 34.5835 31.1834 32.9024 32.3541 31.3264C33.2055 30.1706 33.8441 28.9098 34.2698 27.5439C32.2477 26.4932 30.7577 24.3919 30.7577 21.9753Z" fill="white"/>
<path fill-rule="evenodd" clip-rule="evenodd" d="M27.2451 11.9933C28.3094 10.8376 28.8415 9.26157 28.6286 7.68555C27.0322 7.89568 25.5422 8.52609 24.478 9.68185C23.4137 10.8376 22.8815 12.3086 22.988 13.7795C24.6908 13.9896 26.1808 13.2542 27.2451 11.9933Z" fill="white"/>
<path d="M48.5299 9.67929C49.3813 9.67929 50.2327 9.99449 50.7649 10.5198C51.297 11.0452 51.6163 11.9908 51.5099 12.7263C51.5099 14.7226 50.4456 15.8783 48.5299 15.8783H46.2949V9.57422H48.5299V9.67929ZM47.2528 15.1428H48.4235C49.062 15.1428 49.5942 14.9327 50.0199 14.5124C50.4456 14.0922 50.6585 13.4617 50.552 12.9364C50.6585 12.306 50.4456 11.7807 50.0199 11.3604C49.5942 10.9401 49.062 10.5198 48.4235 10.6249H47.2528V15.1428Z" fill="white"/>
<path d="M52.6823 13.567C52.5759 12.7264 53.0016 11.8859 53.7466 11.4656C54.4916 11.0453 55.4494 11.0453 56.088 11.4656C56.7266 11.8859 57.2587 12.7264 57.1523 13.567C57.2587 14.4075 56.833 15.2481 56.088 15.6683C55.343 16.0886 54.3852 16.0886 53.6402 15.6683C53.0016 15.2481 52.5759 14.5126 52.6823 13.567ZM56.1944 13.567C56.1944 12.5163 55.7687 11.9909 54.9173 11.9909C54.0659 11.9909 53.6402 12.6213 53.6402 13.567C53.6402 14.6176 54.0659 15.2481 54.9173 15.2481C55.7687 15.2481 56.1944 14.6176 56.1944 13.567Z" fill="white"/>
<path fill-rule="evenodd" clip-rule="evenodd" d="M63.2198 15.9839H62.262L61.1977 12.5167L60.1334 15.9839H59.1756L57.8984 11.2559H58.8563L59.7077 14.8282L60.772 11.2559H61.6234L62.5812 14.8282H62.6877L63.5391 11.2559H64.4969L63.2198 15.9839Z" fill="white"/>
<path fill-rule="evenodd" clip-rule="evenodd" d="M65.666 11.2555H66.6239V11.9909H66.7303C66.9431 11.4656 67.5817 11.1504 68.1139 11.1504C68.5396 11.1504 69.0717 11.2555 69.391 11.6757C69.7103 11.9909 69.8167 12.5163 69.8167 12.9366V15.9835H68.8589V13.1467C68.8589 12.4112 68.5396 11.9909 67.7946 11.9909C67.4753 11.9909 67.156 12.096 66.9432 12.3061C66.7303 12.5163 66.6239 12.8315 66.6239 13.1467V15.8785H65.666V11.2555Z" fill="white"/>
<path fill-rule="evenodd" clip-rule="evenodd" d="M71.2012 9.36523H72.159V15.9845H71.2012V9.36523Z" fill="white"/>
<path d="M73.4343 13.567C73.3278 12.7264 73.7535 11.8859 74.4985 11.4656C75.2435 11.0453 76.2014 11.0453 76.8399 11.4656C77.5849 11.8859 78.0106 12.7264 77.9042 13.567C78.0106 14.4075 77.5849 15.2481 76.8399 15.6683C76.095 16.0886 75.1371 16.0886 74.3921 15.6683C73.7535 15.2481 73.3278 14.5126 73.4343 13.567ZM77.0528 13.567C77.0528 12.5163 76.6271 11.9909 75.7757 11.9909C74.9243 11.9909 74.4985 12.6213 74.4985 13.567C74.4985 14.6176 74.9243 15.2481 75.7757 15.2481C76.5207 15.2481 77.0528 14.6176 77.0528 13.567Z" fill="white"/>
<path d="M78.9688 14.6176C78.9688 13.7771 79.6073 13.2518 80.778 13.2518L82.0552 13.1467V12.7264C82.0552 12.2011 81.7359 11.9909 81.0973 11.9909C80.5652 11.9909 80.2459 12.2011 80.1395 12.5163H79.1816C79.288 11.6757 80.033 11.1504 81.0973 11.1504C82.268 11.1504 83.013 11.7808 83.013 12.7264V15.9835H82.0552V15.3531H81.9487C81.6295 15.8785 81.0973 16.0886 80.4587 16.0886C80.033 16.0886 79.6073 15.9835 79.3945 15.7734C79.1816 15.4582 78.9688 15.0379 78.9688 14.6176ZM82.0552 14.1974V13.8822L80.8845 13.9872C80.2459 13.9872 79.9266 14.3024 79.9266 14.6176C79.9266 15.0379 80.3523 15.2481 80.778 15.2481C81.0973 15.2481 81.4166 15.143 81.6295 15.0379C81.8423 14.8278 82.0552 14.5126 82.0552 14.1974Z" fill="white"/>
<path d="M84.1855 13.568C84.1855 12.097 84.9305 11.1514 86.2077 11.1514C86.8462 11.1514 87.3784 11.4666 87.6977 11.9919H87.8041V9.36523H88.762V15.9845H87.8041V15.2491H87.6977C87.3784 15.7744 86.8462 16.0896 86.2077 16.0896C85.037 16.0896 84.1855 15.144 84.1855 13.568ZM85.2498 13.568C85.2498 14.6187 85.782 15.144 86.527 15.144C87.272 15.144 87.8041 14.5136 87.8041 13.568C87.8041 12.6224 87.272 11.9919 86.527 11.9919C85.6755 11.9919 85.2498 12.6224 85.2498 13.568Z" fill="white"/>
<path d="M92.5904 13.567C92.484 12.7264 92.9097 11.8859 93.6547 11.4656C94.3997 11.0453 95.3575 11.0453 95.9961 11.4656C96.7411 11.8859 97.1668 12.7264 97.0604 13.567C97.1668 14.4075 96.7411 15.2481 95.9961 15.6683C95.2511 16.0886 94.2932 16.0886 93.5482 15.6683C92.9097 15.2481 92.5904 14.5126 92.5904 13.567ZM96.2089 13.567C96.2089 12.5163 95.7832 11.9909 94.9318 11.9909C94.0804 11.9909 93.6547 12.6213 93.6547 13.567C93.6547 14.6176 94.0804 15.2481 94.9318 15.2481C95.6768 15.2481 96.2089 14.6176 96.2089 13.567Z" fill="white"/>
<path fill-rule="evenodd" clip-rule="evenodd" d="M98.4434 11.2555H99.4012V11.9909H99.5076C99.7205 11.4656 100.359 11.1504 100.891 11.1504C101.317 11.1504 101.849 11.2555 102.168 11.6757C102.488 11.9909 102.594 12.5163 102.594 12.9366V15.9835H101.636V13.1467C101.636 12.4112 101.317 11.9909 100.572 11.9909C100.253 11.9909 99.9333 12.096 99.7205 12.3061C99.5076 12.5163 99.4012 12.8315 99.4012 13.1467V15.8785H98.4434V11.2555Z" fill="white"/>
<path fill-rule="evenodd" clip-rule="evenodd" d="M107.811 10.1016V11.2573H108.875V12.0979H107.811V14.5144C107.811 15.0398 108.024 15.2499 108.45 15.2499C108.556 15.2499 108.663 15.2499 108.769 15.2499V15.9854C108.556 15.9854 108.45 15.9854 108.237 15.9854C107.173 15.9854 106.747 15.6702 106.747 14.7246V12.0979H106.002V11.2573H106.747V10.1016H107.811Z" fill="white"/>
<path fill-rule="evenodd" clip-rule="evenodd" d="M110.152 9.36523H111.11V11.9919H111.217C111.429 11.4666 112.068 11.0463 112.707 11.1514C113.132 11.1514 113.664 11.2565 113.984 11.6767C114.303 11.9919 114.409 12.5173 114.409 12.9376V15.9845H113.452V13.1477C113.452 12.4122 113.132 11.9919 112.387 11.9919C112.068 11.9919 111.749 12.097 111.536 12.3072C111.323 12.5173 111.217 12.8325 111.217 13.1477V15.8795H110.259L110.152 9.36523Z" fill="white"/>
<path d="M119.838 14.7227C119.625 15.5633 118.667 16.1937 117.709 16.0886C117.071 16.0886 116.432 15.8785 116.007 15.3531C115.581 14.9329 115.368 14.3024 115.474 13.672C115.368 13.0416 115.581 12.4112 116.007 11.8859C116.432 11.3605 117.071 11.1504 117.709 11.1504C119.093 11.1504 119.838 12.096 119.838 13.567V13.8822H116.432C116.432 14.1974 116.539 14.6176 116.752 14.8278C116.964 15.0379 117.39 15.2481 117.709 15.2481C118.135 15.3531 118.667 15.0379 118.88 14.7227H119.838ZM116.432 13.1467H118.88C118.88 12.8315 118.774 12.5163 118.561 12.3061C118.348 12.096 118.029 11.9909 117.709 11.9909C117.39 11.9909 117.071 12.096 116.858 12.3061C116.645 12.5163 116.432 12.8315 116.432 13.1467Z" fill="white"/>
<path d="M54.3834 29.0128H49.3813L48.2106 32.5851H46.082L50.7648 19.5566H52.9998L57.7891 32.5851H55.6605L54.3834 29.0128ZM49.9134 27.4368H53.9577L51.9355 21.658H51.8291L49.9134 27.4368Z" fill="white"/>
<path d="M68.1108 27.8566C68.1108 30.7985 66.5144 32.6898 64.0665 32.6898C62.7894 32.7948 61.6187 32.0594 61.0866 31.0087V35.7368H59.0645V23.1286H60.9801V24.7046C61.6187 23.6539 62.7894 23.0235 64.0665 23.0235C66.4079 22.9184 68.1108 24.9147 68.1108 27.8566ZM65.9822 27.8566C65.9822 25.9654 65.0244 24.7046 63.428 24.7046C61.938 24.7046 60.8737 25.9654 60.8737 27.8566C60.8737 29.7479 61.938 31.0087 63.428 31.0087C65.0244 31.0087 65.9822 29.7479 65.9822 27.8566Z" fill="white"/>
<path d="M78.6479 27.8566C78.6479 30.7985 77.0515 32.6898 74.6037 32.6898C73.3265 32.7948 72.1558 32.0594 71.6237 31.0087V35.7368H69.6016V23.1286H71.5173V24.7046C72.1558 23.6539 73.3265 23.0235 74.6037 23.0235C77.0515 22.9184 78.6479 24.9147 78.6479 27.8566ZM76.6258 27.8566C76.6258 25.9654 75.6679 24.7046 74.0715 24.7046C72.5815 24.7046 71.5173 25.9654 71.5173 27.8566C71.5173 29.7479 72.5815 31.0087 74.0715 31.0087C75.6679 31.0087 76.6258 29.7479 76.6258 27.8566Z" fill="white"/>
<path fill-rule="evenodd" clip-rule="evenodd" d="M85.6726 28.9069C85.779 30.1677 87.0561 31.0083 88.8654 31.0083C90.5682 31.0083 91.7389 30.1678 91.7389 29.012C91.7389 27.9613 90.9939 27.436 89.2911 27.0157L87.5883 26.5954C85.1404 25.965 84.0761 24.9143 84.0761 23.1282C84.0761 20.9217 86.0983 19.3457 88.8654 19.3457C91.6325 19.3457 93.5482 20.9217 93.6546 23.1282H91.6325C91.5261 21.8673 90.4618 21.0268 88.8654 21.0268C87.269 21.0268 86.2047 21.8673 86.2047 23.0231C86.2047 23.9687 86.9497 24.4941 88.6525 24.9143L90.1425 25.2295C92.8032 25.8599 93.9739 26.9106 93.9739 28.8019C93.9739 31.2184 91.9518 32.7945 88.8654 32.7945C85.8854 32.7945 83.9697 31.3235 83.8633 28.9069H85.6726Z" fill="white"/>
<path fill-rule="evenodd" clip-rule="evenodd" d="M98.018 20.8164V23.0228H99.8273V24.5989H98.018V29.8523C98.018 30.6928 98.3373 31.008 99.1887 31.008C99.4016 31.008 99.6144 31.008 99.8273 31.008V32.5841C99.508 32.6891 99.0823 32.6891 98.763 32.6891C96.8473 32.6891 96.1023 31.9537 96.1023 30.1675V24.5989H94.7188V23.0228H96.1023V20.8164H98.018Z" fill="white"/>
<path d="M100.998 27.8566C100.998 24.9147 102.807 23.0234 105.574 23.0234C108.342 23.0234 110.151 24.9147 110.151 27.8566C110.151 30.9036 108.342 32.6897 105.574 32.6897C102.701 32.6897 100.998 30.7985 100.998 27.8566ZM108.129 27.8566C108.129 25.7552 107.171 24.5995 105.574 24.5995C103.978 24.5995 103.02 25.7552 103.02 27.8566C103.02 29.9579 103.978 31.1137 105.574 31.1137C107.171 31.1137 108.129 29.8529 108.129 27.8566Z" fill="white"/>
<path fill-rule="evenodd" clip-rule="evenodd" d="M111.747 23.0237H113.663V24.7047C113.876 23.6541 114.94 22.9186 116.004 23.0237C116.217 23.0237 116.43 23.0237 116.643 23.1287V24.9149C116.323 24.8098 116.111 24.7047 115.791 24.7047C115.259 24.7047 114.621 24.9149 114.301 25.3352C113.982 25.7554 113.663 26.3858 113.663 26.9112V32.5849H111.641L111.747 23.0237Z" fill="white"/>
<path d="M125.797 29.7474C125.585 31.4285 123.775 32.6893 121.647 32.6893C118.88 32.6893 117.07 30.7981 117.07 27.8562C117.07 24.9143 118.773 22.918 121.54 22.918C124.201 22.918 125.904 24.7041 125.904 27.646V28.2765H119.092V28.3815C118.986 29.117 119.305 29.7474 119.731 30.2728C120.263 30.7981 120.902 31.1133 121.647 31.0082C122.605 31.1133 123.562 30.588 123.882 29.6423L125.797 29.7474ZM119.092 26.9106H123.882C123.882 26.2802 123.669 25.6497 123.243 25.2295C122.817 24.8092 122.179 24.494 121.54 24.494C120.902 24.494 120.263 24.7041 119.837 25.2295C119.305 25.6497 119.092 26.2802 119.092 26.9106Z" fill="white"/>
</g>
<defs>
<clipPath id="clip0_7039_296347">
<rect width="144" height="42" fill="white" transform="translate(0 0.855469)"/>
</clipPath>
</defs>
</svg>
