<svg width="68" height="69" viewBox="0 0 68 69" fill="none" xmlns="http://www.w3.org/2000/svg">
<path d="M33.9998 68.2854C52.7773 68.2854 67.9995 53.0631 67.9995 34.2854C67.9995 15.5077 52.7773 0.2854 33.9998 0.2854C15.2222 0.2854 0 15.5077 0 34.2854C0 53.0631 15.2222 68.2854 33.9998 68.2854Z" fill="url(#paint0_linear_1446_18547)"/>
<path d="M34.0002 60.6689C48.5711 60.6689 60.3832 48.8568 60.3832 34.2858C60.3832 19.7147 48.5711 7.90259 34.0002 7.90259C19.4293 7.90259 7.61719 19.7147 7.61719 34.2858C7.61719 48.8568 19.4293 60.6689 34.0002 60.6689Z" fill="url(#paint1_linear_1446_18547)"/>
<path d="M21.7251 28.3185H16.9278L15.8386 31.2861H14.9033L18.9017 20.7192H19.7512L23.7496 31.2861H22.8202L21.7251 28.3185ZM17.2045 27.5644H21.4426L19.3226 21.8085L17.2026 27.5644H17.2045Z" fill="white"/>
<path d="M26.244 31.2881H25.3516V20.7212H26.244V31.2881Z" fill="white"/>
<path d="M36.4443 27.9938C36.3235 29.1064 35.926 29.9579 35.2499 30.5483C34.5737 31.1387 33.6755 31.4329 32.5531 31.4329C31.7698 31.4329 31.0761 31.2361 30.474 30.8445C29.8719 30.4528 29.4062 29.8975 29.0769 29.1785C28.7476 28.4595 28.5801 27.6391 28.5762 26.7136V25.3418C28.5762 24.4026 28.7398 23.5706 29.0691 22.8457C29.3984 22.1209 29.8719 21.5597 30.4877 21.1661C31.1054 20.7725 31.8146 20.5737 32.6174 20.5737C33.7495 20.5737 34.6439 20.8777 35.2986 21.4876C35.9533 22.0975 36.3352 22.9412 36.4424 24.0207H35.5421C35.32 22.2261 34.3438 21.3278 32.6174 21.3278C31.6587 21.3278 30.8969 21.6863 30.3279 22.4034C29.7589 23.1205 29.4744 24.1103 29.4744 25.3749V26.6687C29.4744 27.8885 29.7511 28.8628 30.3045 29.5877C30.8579 30.3145 31.6081 30.6769 32.5512 30.6769C33.4942 30.6769 34.1879 30.4528 34.6634 30.0046C35.1368 29.5565 35.4311 28.8862 35.5421 27.9899H36.4424L36.4443 27.9938Z" fill="white"/>
<path d="M39.3573 26.9838V31.2881H38.4648V20.7212H42.0638C43.1627 20.7212 44.0298 21.0018 44.665 21.563C45.3003 22.1241 45.6198 22.8958 45.6198 23.8778C45.6198 24.8599 45.3139 25.6354 44.7021 26.1751C44.0902 26.7149 43.2036 26.9838 42.0423 26.9838H39.3573ZM39.3573 26.2297H42.0638C42.9289 26.2297 43.5895 26.0232 44.0454 25.612C44.4994 25.2009 44.7274 24.6261 44.7274 23.8895C44.7274 23.153 44.5014 22.5742 44.0493 22.1417C43.5972 21.7072 42.9542 21.487 42.1222 21.4772H39.3573V26.2316V26.2297Z" fill="white"/>
<path d="M52.1714 28.3185H47.3741L46.2849 31.2861H45.3496L49.348 20.7192H50.1975L54.1959 31.2861H53.2664L52.1714 28.3185ZM47.6508 27.5644H51.8888L49.7689 21.8085L47.6489 27.5644H47.6508Z" fill="white"/>
<path d="M27.7557 45.852C27.7557 45.2674 27.5492 44.8037 27.138 44.4627C26.7269 44.1217 25.9748 43.7982 24.8816 43.4904C23.7885 43.1825 22.9896 42.8473 22.4869 42.4849C21.7718 41.9725 21.4133 41.3002 21.4133 40.4682C21.4133 39.6362 21.7465 39.0029 22.4109 38.4982C23.0754 37.9935 23.9269 37.7402 24.9615 37.7402C25.663 37.7402 26.2904 37.8766 26.8457 38.1475C27.3991 38.4183 27.8298 38.7963 28.1337 39.2796C28.4377 39.7628 28.5916 40.3026 28.5916 40.8988H27.6914C27.6914 40.1759 27.4439 39.5952 26.951 39.1549C26.458 38.7145 25.7955 38.4963 24.9615 38.4963C24.1276 38.4963 23.5099 38.6775 23.0305 39.038C22.5512 39.3984 22.3115 39.87 22.3115 40.4526C22.3115 40.9904 22.5259 41.4288 22.9584 41.7679C23.3891 42.1069 24.0788 42.407 25.0258 42.6661C25.9748 42.9253 26.6918 43.1942 27.1809 43.4728C27.67 43.7515 28.0382 44.0827 28.2838 44.4705C28.5312 44.8582 28.654 45.3142 28.654 45.8422C28.654 46.6743 28.3208 47.3426 27.6563 47.8453C26.9919 48.3481 26.1151 48.5994 25.0258 48.5994C24.2815 48.5994 23.5976 48.4669 22.976 48.2C22.3544 47.933 21.8829 47.5609 21.5614 47.0815C21.2399 46.6022 21.0781 46.0527 21.0781 45.435H21.9705C21.9705 46.1793 22.2492 46.7678 22.8045 47.1984C23.3598 47.6291 24.1003 47.8434 25.0258 47.8434C25.8481 47.8434 26.5087 47.6622 27.0075 47.2997C27.5063 46.9373 27.7557 46.456 27.7557 45.8559V45.852Z" fill="white"/>
<path d="M38.2393 43.7398C38.2393 44.7121 38.0718 45.5655 37.7347 46.3021C37.3976 47.0367 36.9182 47.6037 36.2947 48.0012C35.6712 48.3987 34.9502 48.5955 34.1318 48.5955C32.8984 48.5955 31.9008 48.1532 31.1409 47.2705C30.3809 46.3878 30.001 45.1953 30.001 43.6969V42.6077C30.001 41.6451 30.1724 40.7916 30.5134 40.0492C30.8544 39.3069 31.3377 38.7359 31.9612 38.3365C32.5847 37.937 33.3037 37.7383 34.1163 37.7383C34.9288 37.7383 35.6458 37.9351 36.2674 38.3267C36.889 38.7184 37.3683 39.2718 37.7074 39.9888C38.0464 40.7059 38.2218 41.534 38.2374 42.4791V43.7417L38.2393 43.7398ZM37.3469 42.594C37.3469 41.3216 37.0585 40.324 36.4837 39.603C35.9069 38.8821 35.1197 38.5216 34.1182 38.5216C33.1167 38.5216 32.3528 38.884 31.7702 39.6069C31.1876 40.3298 30.8953 41.3411 30.8953 42.6369V43.7398C30.8953 44.9927 31.1857 45.9864 31.7663 46.7191C32.347 47.4517 33.1361 47.8181 34.1318 47.8181C35.1275 47.8181 35.9323 47.4556 36.4973 46.7327C37.0644 46.0098 37.3469 45.0024 37.3469 43.7105V42.5921V42.594Z" fill="white"/>
<path d="M47.8242 45.1544C47.7034 46.267 47.3059 47.1185 46.6297 47.7089C45.9556 48.2993 45.0553 48.5936 43.933 48.5936C43.1497 48.5936 42.456 48.3968 41.8539 48.0051C41.2518 47.6135 40.7861 47.0581 40.4568 46.3391C40.1275 45.6201 39.96 44.7998 39.9561 43.8742V42.5024C39.9561 41.5632 40.1197 40.7312 40.449 40.0064C40.7783 39.2815 41.2518 38.7203 41.8676 38.3267C42.4852 37.9331 43.1945 37.7344 43.9973 37.7344C45.1294 37.7344 46.0238 38.0383 46.6785 38.6482C47.3332 39.2581 47.7151 40.1018 47.8222 41.1813H46.922C46.6999 39.3867 45.7237 38.4885 43.9973 38.4885C43.0386 38.4885 42.2767 38.847 41.7078 39.564C41.1388 40.2811 40.8543 41.271 40.8543 42.5356V43.8294C40.8543 45.0492 41.131 46.0234 41.6863 46.7483C42.2397 47.4751 42.9899 47.8375 43.933 47.8375C44.8761 47.8375 45.5697 47.6134 46.0452 47.1653C46.5187 46.7171 46.8129 46.0468 46.924 45.1505H47.8242V45.1544Z" fill="white"/>
<path d="M14.5762 34.7217H54.8541" stroke="white" stroke-width="0.120638" stroke-linecap="round" stroke-linejoin="round"/>
<path d="M62.795 61.0723V61.308H62.341V62.4928H62.0585V61.308H61.6045V61.0723H62.795ZM64.3285 62.4908L64.2759 61.6568C64.2701 61.5477 64.2701 61.4113 64.2662 61.2593H64.2506C64.2136 61.384 64.1726 61.5516 64.1298 61.6822L63.8745 62.4694H63.5822L63.327 61.6607C63.3017 61.5516 63.2588 61.384 63.2276 61.2593H63.212C63.212 61.3899 63.2062 61.5263 63.2023 61.6568L63.1497 62.4908H62.8788L62.984 61.0723H63.4069L63.6524 61.7659C63.6836 61.8751 63.7089 61.9803 63.7459 62.1264H63.7518C63.7888 61.9959 63.82 61.8751 63.8511 61.7718L64.0967 61.0723H64.5039L64.613 62.4908H64.3305H64.3285Z" fill="#231F20"/>
<defs>
<linearGradient id="paint0_linear_1446_18547" x1="67.9995" y1="34.2854" x2="0" y2="34.2854" gradientUnits="userSpaceOnUse">
<stop stop-color="#2161AD"/>
<stop offset="0.18" stop-color="#1F69B3"/>
<stop offset="0.47" stop-color="#1C82C4"/>
<stop offset="0.84" stop-color="#16A9E1"/>
<stop offset="1" stop-color="#14BDEF"/>
</linearGradient>
<linearGradient id="paint1_linear_1446_18547" x1="7.61719" y1="0.285762" x2="60.3834" y2="34.2854" gradientUnits="userSpaceOnUse">
<stop stop-color="#2161AD"/>
<stop offset="0.18" stop-color="#1F69B3"/>
<stop offset="0.47" stop-color="#1C82C4"/>
<stop offset="0.84" stop-color="#16A9E1"/>
<stop offset="1" stop-color="#14BDEF"/>
</linearGradient>
</defs>
</svg>
