<svg width="84" height="24" viewBox="0 0 84 24" fill="none" xmlns="http://www.w3.org/2000/svg">
<path d="M29.8887 8.80461L29.8889 8.80447L29.8833 8.79749C29.451 8.26165 29.1182 7.60705 28.9562 6.8946L28.9561 6.89448C28.7063 5.79969 28.8707 4.5734 29.3561 3.49191C29.8415 2.41041 30.6416 1.48743 31.647 0.988034L31.647 0.988039L31.6481 0.987477C31.8451 0.887789 31.9079 0.881427 31.9432 0.890357C31.9594 0.894461 31.9844 0.905785 32.0257 0.943098C32.0681 0.981509 32.1183 1.03867 32.1864 1.12359L32.1867 1.12401C32.8898 1.99531 33.2507 3.15661 33.2688 4.33096C33.2869 5.50534 32.962 6.67842 32.3117 7.57108C31.866 8.18289 31.2911 8.63656 30.6585 8.95048L30.6584 8.95012L30.6483 8.956C30.5195 9.0315 30.4255 9.0803 30.3509 9.10757C30.278 9.13424 30.2372 9.13518 30.2101 9.12958C30.1834 9.12405 30.1476 9.10754 30.0936 9.0557C30.0379 9.00236 29.9738 8.9223 29.8887 8.80461Z" fill="white" stroke="white" stroke-width="0.3354"/>
<path d="M7.45712 8.63987L7.45694 8.63972L7.46304 8.63314C7.93157 8.12756 8.30919 7.49681 8.52046 6.79686L8.5205 6.79675C8.846 5.72124 8.76729 4.48673 8.35829 3.37516C7.94928 2.26357 7.21529 1.28905 6.24703 0.723345L6.24702 0.723349L6.24595 0.722714C6.05634 0.610024 5.99424 0.599515 5.95852 0.60604C5.94209 0.60904 5.91631 0.618645 5.87258 0.653111C5.82756 0.688587 5.77351 0.742247 5.69968 0.822403L5.69931 0.822801C4.93714 1.64488 4.49628 2.77929 4.39647 3.94971C4.29666 5.12018 4.5392 6.31236 5.12587 7.2466C5.52798 7.88691 6.06992 8.37811 6.67912 8.73374L6.67932 8.7334L6.68893 8.73994C6.81216 8.82392 6.90256 8.8789 6.97504 8.91111C7.04592 8.94261 7.08653 8.94627 7.1139 8.9425C7.14093 8.93879 7.17772 8.92473 7.23527 8.87663C7.29447 8.82715 7.36409 8.75157 7.45712 8.63987Z" fill="white" stroke="white" stroke-width="0.3354"/>
<path d="M29.718 13.4118L29.7183 13.4118L29.7183 13.403C29.7203 12.7192 29.8754 12.0033 30.2009 11.3466L30.2009 11.3465C30.7004 10.3369 31.6074 9.47841 32.6733 8.92974C33.7393 8.38105 34.9505 8.14918 36.0533 8.37406L36.0533 8.37406L36.0545 8.37431C36.2719 8.41697 36.3243 8.45033 36.3458 8.47836C36.3558 8.49131 36.3682 8.51542 36.3768 8.56993C36.3856 8.626 36.3886 8.70147 36.3879 8.80958L36.3879 8.81011C36.3849 9.92227 35.9301 11.0517 35.1989 11.9815C34.4677 12.9113 33.469 13.6298 32.394 13.9298C31.6573 14.1354 30.92 14.1382 30.2264 13.9965L30.2265 13.9961L30.2148 13.9946C30.0662 13.9748 29.9618 13.9554 29.8863 13.9311C29.8126 13.9074 29.7804 13.8833 29.763 13.8626C29.7458 13.8421 29.7283 13.8075 29.7189 13.7337C29.7093 13.6579 29.7099 13.5559 29.718 13.4118Z" fill="white" stroke="white" stroke-width="0.3354"/>
<path d="M7.73607 13.4118L7.73583 13.4118L7.73581 13.403C7.73383 12.7192 7.57871 12.0033 7.25324 11.3466L7.25319 11.3465C6.75373 10.3369 5.84673 9.47841 4.7808 8.92974C3.71481 8.38105 2.50358 8.14918 1.40085 8.37406L1.40085 8.37406L1.39961 8.37431C1.18219 8.41697 1.12977 8.45033 1.10827 8.47836C1.09834 8.49131 1.08592 8.51542 1.07734 8.56993C1.06851 8.626 1.06554 8.70147 1.06619 8.80958L1.06619 8.81011C1.06916 9.92227 1.52398 11.0517 2.25517 11.9815C2.9864 12.9113 3.98506 13.6298 5.06006 13.9298C5.79682 14.1354 6.5341 14.1382 7.22772 13.9965L7.22763 13.9961L7.2393 13.9946C7.38792 13.9748 7.49229 13.9554 7.56777 13.9311C7.64153 13.9074 7.6737 13.8833 7.69108 13.8626C7.7083 13.8421 7.72579 13.8075 7.73519 13.7337C7.74485 13.6579 7.74424 13.5559 7.73607 13.4118Z" fill="white" stroke="white" stroke-width="0.3354"/>
<path d="M27.2764 17.1919L27.2766 17.192L27.2816 17.1848C27.6695 16.6165 28.2031 16.1048 28.8454 15.7352L28.8455 15.7351C29.8322 15.1664 31.0726 14.9459 32.2698 15.07C33.4672 15.194 34.6056 15.6609 35.3955 16.4479L35.3955 16.4479L35.3964 16.4488C35.5535 16.6029 35.5768 16.658 35.5788 16.6912C35.5797 16.7067 35.5766 16.7334 35.5528 16.7837C35.5284 16.8352 35.4882 16.8998 35.4266 16.9894L35.4263 16.9899C34.7955 17.9145 33.7785 18.6073 32.6442 18.983C31.5099 19.3588 30.2725 19.4127 29.2084 19.0768C28.4793 18.8466 27.8645 18.4476 27.3678 17.9523L27.3681 17.952L27.3591 17.9442C27.2466 17.8468 27.1709 17.774 27.1221 17.713C27.0744 17.6535 27.0618 17.6168 27.0591 17.5912C27.0564 17.5656 27.0612 17.5275 27.0952 17.4606C27.1301 17.3921 27.1883 17.3074 27.2764 17.1919Z" fill="white" stroke="white" stroke-width="0.3354"/>
<path d="M10.1777 17.1909L10.1775 17.1911L10.1725 17.1838C9.78464 16.6155 9.25095 16.1038 8.6087 15.7342L8.60859 15.7342C7.62189 15.1654 6.38146 14.945 5.18432 15.069C3.98694 15.193 2.84853 15.6599 2.05859 16.4469L2.05859 16.4469L2.05768 16.4478C1.90062 16.6019 1.8773 16.657 1.87535 16.6902C1.87443 16.7057 1.87754 16.7324 1.90129 16.7827C1.92566 16.8343 1.96587 16.8988 2.02746 16.9885L2.02776 16.9889C2.65858 17.9135 3.67558 18.6063 4.80986 18.982C5.94422 19.3578 7.1816 19.4118 8.24567 19.0758C8.97478 18.8456 9.58956 18.4466 10.0863 17.9513L10.086 17.951L10.095 17.9432C10.2075 17.8458 10.2832 17.773 10.332 17.7121C10.3797 17.6526 10.3923 17.6159 10.395 17.5903C10.3977 17.5646 10.3929 17.5265 10.3589 17.4596C10.324 17.3911 10.2658 17.3064 10.1777 17.1909Z" fill="white" stroke="white" stroke-width="0.3354"/>
<path d="M21.8263 19.7156L21.8265 19.7158L21.8339 19.7111C22.421 19.3426 23.1187 19.0832 23.8582 18.9968L23.8583 18.9968C24.9947 18.8632 26.2217 19.1487 27.2684 19.7329C28.3155 20.3172 29.1685 21.1924 29.5718 22.2237L29.5718 22.2237L29.5723 22.2249C29.6535 22.428 29.6521 22.4869 29.6407 22.5174C29.6352 22.5318 29.6216 22.555 29.5793 22.5918C29.5359 22.6296 29.4727 22.6729 29.3798 22.7309L29.3793 22.7312C28.4243 23.3309 27.2097 23.5663 26.0167 23.4649C24.8237 23.3635 23.6675 22.9266 22.829 22.2006C22.2546 21.7032 21.8538 21.0959 21.6003 20.4471L21.6007 20.4469L21.5955 20.4361C21.5321 20.3026 21.4925 20.2063 21.4726 20.1314C21.4532 20.0584 21.4566 20.0201 21.4645 19.996C21.4724 19.9718 21.4922 19.9387 21.5507 19.8907C21.6106 19.8416 21.6984 19.7868 21.8263 19.7156Z" fill="white" stroke="white" stroke-width="0.3354"/>
<path d="M15.6278 19.7156L15.6277 19.7158L15.6202 19.7111C15.0331 19.3426 14.3354 19.0832 13.5959 18.9968L13.5958 18.9968C12.4594 18.8632 11.2324 19.1487 10.1857 19.7329C9.13861 20.3172 8.28559 21.1924 7.88229 22.2237L7.88229 22.2237L7.88181 22.2249C7.8006 22.428 7.80198 22.4869 7.81344 22.5174C7.81886 22.5318 7.83248 22.555 7.87481 22.5918C7.91819 22.6296 7.98137 22.6729 8.07435 22.7309L8.0748 22.7312C9.02978 23.3309 10.2444 23.5663 11.4374 23.4649C12.6304 23.3635 13.7866 22.9266 14.6251 22.2006C15.1995 21.7032 15.6003 21.0959 15.8538 20.4471L15.8534 20.4469L15.8586 20.4361C15.922 20.3026 15.9616 20.2063 15.9815 20.1314C16.0009 20.0584 15.9975 20.0201 15.9896 19.996C15.9817 19.9718 15.9619 19.9387 15.9034 19.8907C15.8435 19.8416 15.7557 19.7868 15.6278 19.7156Z" fill="white" stroke="white" stroke-width="0.3354"/>
<path d="M29.4603 4.60498C30.0221 5.94328 30.332 7.40966 30.332 8.94713C30.332 14.1105 26.8366 18.472 22.0433 19.8733M7.99526 4.60498C7.43345 5.94328 7.12354 7.40966 7.12354 8.94713C7.12354 14.1105 10.6189 18.472 15.4123 19.8733" stroke="white" stroke-width="0.87592" stroke-linecap="round"/>
<path fill-rule="evenodd" clip-rule="evenodd" d="M11.7491 2.92075C11.208 3.04084 10.8071 3.50675 10.8071 4.0516V7.58166C10.8071 11.5174 12.9582 15.1986 16.5554 16.9324C17.6307 17.4507 18.4978 17.8275 18.7463 17.8275C18.9947 17.8275 19.861 17.4509 20.9353 16.9329C24.5312 15.1988 26.6811 11.5183 26.6811 7.58356V4.0516C26.6811 3.50675 26.2802 3.04084 25.7392 2.92075C24.9011 2.73473 23.6642 2.4095 22.7126 1.94506C22.1503 1.6706 21.588 1.34754 21.0609 1.04474C20.1002 0.49278 19.2567 0.00817871 18.7441 0.00817871C18.2316 0.00817871 17.3881 0.49278 16.4273 1.04474C15.9003 1.34753 15.338 1.6706 14.7756 1.94506C13.824 2.4095 12.5872 2.73473 11.7491 2.92075ZM21.4492 6.24531C21.7092 5.97404 22.1438 5.9611 22.42 6.21642C22.6961 6.47173 22.7093 6.89861 22.4494 7.16988L18.0721 11.738C17.7414 12.0832 17.1857 12.0914 16.8445 11.7563L14.7192 9.66879C14.451 9.40538 14.451 8.9783 14.7192 8.71489C14.9874 8.45148 15.4222 8.45148 15.6904 8.71489L17.438 10.4315L21.4492 6.24531Z" fill="white"/>
<path d="M44.4484 18C44.4484 17.052 44.6044 16.248 44.9164 15.588C45.2404 14.916 45.6424 14.34 46.1224 13.86C46.6024 13.368 47.1244 12.942 47.6884 12.582C48.2524 12.21 48.7744 11.85 49.2544 11.502C49.7344 11.154 50.1304 10.794 50.4424 10.422C50.7664 10.05 50.9284 9.606 50.9284 9.09C50.9284 8.502 50.7304 8.028 50.3344 7.668C49.9504 7.296 49.3984 7.11 48.6784 7.11C48.1984 7.11 47.8024 7.2 47.4904 7.38C47.1904 7.56 46.9444 7.758 46.7524 7.974C46.5364 8.226 46.3684 8.508 46.2484 8.82L44.6284 8.1C44.7964 7.56 45.0544 7.08 45.4024 6.66C45.7024 6.3 46.1104 5.97 46.6264 5.67C47.1544 5.37 47.8384 5.22 48.6784 5.22C49.3024 5.22 49.8724 5.322 50.3884 5.526C50.9164 5.718 51.3664 5.994 51.7384 6.354C52.1104 6.702 52.3984 7.11 52.6024 7.578C52.8064 8.046 52.9084 8.55 52.9084 9.09C52.9084 9.702 52.7884 10.236 52.5484 10.692C52.3204 11.148 52.0204 11.562 51.6484 11.934C51.2764 12.294 50.8564 12.63 50.3884 12.942C49.9204 13.242 49.4584 13.554 49.0024 13.878C48.5584 14.19 48.1384 14.526 47.7424 14.886C47.3464 15.234 47.0284 15.642 46.7884 16.11H52.9084V18H44.4484ZM60.1006 18.18C59.3806 18.18 58.7026 18.036 58.0666 17.748C57.4306 17.46 56.8786 17.04 56.4106 16.488C55.9426 15.936 55.5706 15.258 55.2946 14.454C55.0186 13.65 54.8806 12.732 54.8806 11.7C54.8806 10.668 55.0186 9.75 55.2946 8.946C55.5706 8.142 55.9426 7.464 56.4106 6.912C56.8786 6.36 57.4306 5.94 58.0666 5.652C58.7026 5.364 59.3806 5.22 60.1006 5.22C60.8206 5.22 61.4986 5.364 62.1346 5.652C62.7706 5.94 63.3226 6.36 63.7906 6.912C64.2586 7.464 64.6306 8.142 64.9066 8.946C65.1826 9.75 65.3206 10.668 65.3206 11.7C65.3206 12.732 65.1826 13.65 64.9066 14.454C64.6306 15.258 64.2586 15.936 63.7906 16.488C63.3226 17.04 62.7706 17.46 62.1346 17.748C61.4986 18.036 60.8206 18.18 60.1006 18.18ZM60.1006 16.38C60.5326 16.38 60.9406 16.284 61.3246 16.092C61.7206 15.9 62.0626 15.612 62.3506 15.228C62.6506 14.832 62.8906 14.346 63.0706 13.77C63.2506 13.182 63.3406 12.492 63.3406 11.7C63.3406 10.908 63.2506 10.224 63.0706 9.648C62.8906 9.06 62.6506 8.574 62.3506 8.19C62.0626 7.794 61.7206 7.5 61.3246 7.308C60.9406 7.116 60.5326 7.02 60.1006 7.02C59.6686 7.02 59.2546 7.116 58.8586 7.308C58.4746 7.5 58.1326 7.794 57.8326 8.19C57.5446 8.574 57.3106 9.06 57.1306 9.648C56.9506 10.224 56.8606 10.908 56.8606 11.7C56.8606 12.492 56.9506 13.182 57.1306 13.77C57.3106 14.346 57.5446 14.832 57.8326 15.228C58.1326 15.612 58.4746 15.9 58.8586 16.092C59.2546 16.284 59.6686 16.38 60.1006 16.38ZM69.1984 8.37H66.9484V7.11C67.3564 7.062 67.7044 6.99 67.9924 6.894C68.2804 6.798 68.5264 6.678 68.7304 6.534C68.9464 6.378 69.1264 6.21 69.2704 6.03C69.4144 5.838 69.5404 5.628 69.6484 5.4H71.1784V18H69.1984V8.37ZM78.3805 18.18C77.6845 18.18 77.0545 18.084 76.4905 17.892C75.9385 17.688 75.4705 17.418 75.0865 17.082C74.7025 16.734 74.4025 16.332 74.1865 15.876C73.9825 15.408 73.8805 14.916 73.8805 14.4C73.8805 13.812 73.9885 13.32 74.2045 12.924C74.4325 12.528 74.6845 12.204 74.9605 11.952C75.2725 11.664 75.6325 11.43 76.0405 11.25C75.7285 11.094 75.4585 10.89 75.2305 10.638C75.0265 10.422 74.8405 10.146 74.6725 9.81C74.5045 9.474 74.4205 9.054 74.4205 8.55C74.4205 8.106 74.5105 7.68 74.6905 7.272C74.8825 6.864 75.1465 6.51 75.4825 6.21C75.8305 5.91 76.2445 5.67 76.7245 5.49C77.2165 5.31 77.7685 5.22 78.3805 5.22C78.9925 5.22 79.5385 5.31 80.0185 5.49C80.5105 5.67 80.9245 5.91 81.2605 6.21C81.6085 6.51 81.8725 6.864 82.0525 7.272C82.2445 7.68 82.3405 8.106 82.3405 8.55C82.3405 9.054 82.2565 9.474 82.0885 9.81C81.9205 10.146 81.7345 10.422 81.5305 10.638C81.2905 10.89 81.0205 11.094 80.7205 11.25C81.1285 11.43 81.4885 11.664 81.8005 11.952C82.0765 12.204 82.3225 12.528 82.5385 12.924C82.7665 13.32 82.8805 13.812 82.8805 14.4C82.8805 14.916 82.7725 15.408 82.5565 15.876C82.3525 16.332 82.0585 16.734 81.6745 17.082C81.2905 17.418 80.8165 17.688 80.2525 17.892C79.7005 18.084 79.0765 18.18 78.3805 18.18ZM78.3805 16.38C79.1965 16.38 79.8205 16.182 80.2525 15.786C80.6845 15.39 80.9005 14.898 80.9005 14.31C80.9005 13.722 80.6845 13.23 80.2525 12.834C79.8205 12.438 79.1965 12.24 78.3805 12.24C77.5645 12.24 76.9405 12.438 76.5085 12.834C76.0765 13.23 75.8605 13.722 75.8605 14.31C75.8605 14.898 76.0765 15.39 76.5085 15.786C76.9405 16.182 77.5645 16.38 78.3805 16.38ZM78.3805 10.44C79.0165 10.44 79.5025 10.284 79.8385 9.972C80.1865 9.648 80.3605 9.234 80.3605 8.73C80.3605 8.226 80.1865 7.818 79.8385 7.506C79.5025 7.182 79.0165 7.02 78.3805 7.02C77.7445 7.02 77.2525 7.182 76.9045 7.506C76.5685 7.818 76.4005 8.226 76.4005 8.73C76.4005 9.234 76.5685 9.648 76.9045 9.972C77.2525 10.284 77.7445 10.44 78.3805 10.44Z" fill="white"/>
</svg>
